<mxfile host="app.diagrams.net" modified="2020-12-17T07:17:34.537Z" agent="5.0 (Windows NT 10.0; Win64; x64) AppleWebKit/537.36 (KHTML, like Gecko) Chrome/87.0.4280.88 Safari/537.36" etag="d5Uiiz8tJx7EsljOOGVP" version="13.10.9" type="github">
  <diagram id="gLSPISc9NNEuqzSlc34z" name="Page-1">
    <mxGraphModel dx="981" dy="486" grid="1" gridSize="10" guides="1" tooltips="1" connect="1" arrows="1" fold="1" page="1" pageScale="1" pageWidth="827" pageHeight="1169" math="0" shadow="0">
      <root>
        <mxCell id="0" />
        <mxCell id="1" parent="0" />
        <mxCell id="i8Mm3vH8ENvqSS8jScLA-65" style="edgeStyle=orthogonalEdgeStyle;rounded=0;orthogonalLoop=1;jettySize=auto;html=1;exitX=1;exitY=0.5;exitDx=0;exitDy=0;entryX=0;entryY=0.5;entryDx=0;entryDy=0;" edge="1" parent="1" source="i8Mm3vH8ENvqSS8jScLA-5" target="i8Mm3vH8ENvqSS8jScLA-11">
          <mxGeometry relative="1" as="geometry" />
        </mxCell>
        <mxCell id="i8Mm3vH8ENvqSS8jScLA-5" value="00&amp;nbsp; &amp;nbsp; &amp;nbsp; &amp;nbsp; &amp;nbsp;диск&amp;nbsp; &amp;nbsp; &amp;nbsp; &amp;nbsp; 101" style="rounded=0;whiteSpace=wrap;html=1;align=left;" vertex="1" parent="1">
          <mxGeometry x="210" y="190" width="120" height="20" as="geometry" />
        </mxCell>
        <mxCell id="i8Mm3vH8ENvqSS8jScLA-6" value="01&amp;nbsp; &amp;nbsp; &amp;nbsp; принтер&amp;nbsp; &amp;nbsp; &amp;nbsp;201" style="rounded=0;whiteSpace=wrap;html=1;align=left;" vertex="1" parent="1">
          <mxGeometry x="210" y="210" width="120" height="20" as="geometry" />
        </mxCell>
        <mxCell id="i8Mm3vH8ENvqSS8jScLA-7" value="10&amp;nbsp; &amp;nbsp; &amp;nbsp; &amp;nbsp; мышь&amp;nbsp; &amp;nbsp; &amp;nbsp; &amp;nbsp;301" style="rounded=0;whiteSpace=wrap;html=1;align=left;" vertex="1" parent="1">
          <mxGeometry x="210" y="230" width="120" height="20" as="geometry" />
        </mxCell>
        <mxCell id="i8Mm3vH8ENvqSS8jScLA-8" value="11&amp;nbsp; &amp;nbsp; &amp;nbsp; &amp;nbsp; &amp;nbsp;кл-ра&amp;nbsp; &amp;nbsp; &amp;nbsp; &amp;nbsp;401" style="rounded=0;whiteSpace=wrap;html=1;align=left;" vertex="1" parent="1">
          <mxGeometry x="210" y="250" width="120" height="20" as="geometry" />
        </mxCell>
        <mxCell id="i8Mm3vH8ENvqSS8jScLA-9" value="&lt;b&gt;&lt;font style=&quot;font-size: 16px&quot;&gt;VAD&lt;/font&gt;&lt;/b&gt;" style="text;html=1;strokeColor=none;fillColor=none;align=center;verticalAlign=middle;whiteSpace=wrap;rounded=0;" vertex="1" parent="1">
          <mxGeometry x="250" y="160" width="40" height="20" as="geometry" />
        </mxCell>
        <mxCell id="i8Mm3vH8ENvqSS8jScLA-10" value="&lt;b&gt;&lt;font style=&quot;font-size: 17px&quot;&gt;Осн. программа&lt;/font&gt;&lt;/b&gt;" style="text;html=1;strokeColor=none;fillColor=none;align=center;verticalAlign=middle;whiteSpace=wrap;rounded=0;" vertex="1" parent="1">
          <mxGeometry x="220" y="310" width="100" height="20" as="geometry" />
        </mxCell>
        <mxCell id="i8Mm3vH8ENvqSS8jScLA-11" value="101" style="rounded=0;whiteSpace=wrap;html=1;align=left;" vertex="1" parent="1">
          <mxGeometry x="470" y="190" width="120" height="20" as="geometry" />
        </mxCell>
        <mxCell id="i8Mm3vH8ENvqSS8jScLA-12" value="" style="rounded=0;whiteSpace=wrap;html=1;align=left;" vertex="1" parent="1">
          <mxGeometry x="470" y="210" width="120" height="20" as="geometry" />
        </mxCell>
        <mxCell id="i8Mm3vH8ENvqSS8jScLA-13" value="" style="rounded=0;whiteSpace=wrap;html=1;align=left;" vertex="1" parent="1">
          <mxGeometry x="470" y="230" width="120" height="20" as="geometry" />
        </mxCell>
        <mxCell id="i8Mm3vH8ENvqSS8jScLA-14" value="" style="rounded=0;whiteSpace=wrap;html=1;align=left;" vertex="1" parent="1">
          <mxGeometry x="470" y="250" width="120" height="20" as="geometry" />
        </mxCell>
        <mxCell id="i8Mm3vH8ENvqSS8jScLA-15" value="" style="rounded=0;whiteSpace=wrap;html=1;align=left;" vertex="1" parent="1">
          <mxGeometry x="470" y="270" width="120" height="20" as="geometry" />
        </mxCell>
        <mxCell id="i8Mm3vH8ENvqSS8jScLA-16" value="200" style="rounded=0;whiteSpace=wrap;html=1;align=left;" vertex="1" parent="1">
          <mxGeometry x="470" y="290" width="120" height="20" as="geometry" />
        </mxCell>
        <mxCell id="i8Mm3vH8ENvqSS8jScLA-17" value="201" style="rounded=0;whiteSpace=wrap;html=1;align=left;" vertex="1" parent="1">
          <mxGeometry x="470" y="310" width="120" height="20" as="geometry" />
        </mxCell>
        <mxCell id="i8Mm3vH8ENvqSS8jScLA-18" value="" style="rounded=0;whiteSpace=wrap;html=1;align=left;" vertex="1" parent="1">
          <mxGeometry x="470" y="330" width="120" height="20" as="geometry" />
        </mxCell>
        <mxCell id="i8Mm3vH8ENvqSS8jScLA-19" value="" style="rounded=0;whiteSpace=wrap;html=1;align=left;" vertex="1" parent="1">
          <mxGeometry x="470" y="350" width="120" height="20" as="geometry" />
        </mxCell>
        <mxCell id="i8Mm3vH8ENvqSS8jScLA-20" value="" style="rounded=0;whiteSpace=wrap;html=1;align=left;" vertex="1" parent="1">
          <mxGeometry x="470" y="370" width="120" height="20" as="geometry" />
        </mxCell>
        <mxCell id="i8Mm3vH8ENvqSS8jScLA-21" value="" style="rounded=0;whiteSpace=wrap;html=1;align=left;" vertex="1" parent="1">
          <mxGeometry x="470" y="390" width="120" height="20" as="geometry" />
        </mxCell>
        <mxCell id="i8Mm3vH8ENvqSS8jScLA-22" value="300" style="rounded=0;whiteSpace=wrap;html=1;align=left;" vertex="1" parent="1">
          <mxGeometry x="470" y="410" width="120" height="20" as="geometry" />
        </mxCell>
        <mxCell id="i8Mm3vH8ENvqSS8jScLA-23" value="301" style="rounded=0;whiteSpace=wrap;html=1;align=left;" vertex="1" parent="1">
          <mxGeometry x="470" y="430" width="120" height="20" as="geometry" />
        </mxCell>
        <mxCell id="i8Mm3vH8ENvqSS8jScLA-24" value="" style="rounded=0;whiteSpace=wrap;html=1;align=left;" vertex="1" parent="1">
          <mxGeometry x="470" y="450" width="120" height="20" as="geometry" />
        </mxCell>
        <mxCell id="i8Mm3vH8ENvqSS8jScLA-25" value="" style="rounded=0;whiteSpace=wrap;html=1;align=left;" vertex="1" parent="1">
          <mxGeometry x="470" y="470" width="120" height="20" as="geometry" />
        </mxCell>
        <mxCell id="i8Mm3vH8ENvqSS8jScLA-26" value="335" style="rounded=0;whiteSpace=wrap;html=1;align=left;" vertex="1" parent="1">
          <mxGeometry x="470" y="490" width="120" height="20" as="geometry" />
        </mxCell>
        <mxCell id="i8Mm3vH8ENvqSS8jScLA-27" value="336" style="rounded=0;whiteSpace=wrap;html=1;align=left;" vertex="1" parent="1">
          <mxGeometry x="470" y="510" width="120" height="20" as="geometry" />
        </mxCell>
        <mxCell id="i8Mm3vH8ENvqSS8jScLA-28" value="" style="rounded=0;whiteSpace=wrap;html=1;align=left;" vertex="1" parent="1">
          <mxGeometry x="470" y="530" width="120" height="20" as="geometry" />
        </mxCell>
        <mxCell id="i8Mm3vH8ENvqSS8jScLA-29" value="400" style="rounded=0;whiteSpace=wrap;html=1;align=left;" vertex="1" parent="1">
          <mxGeometry x="470" y="550" width="120" height="20" as="geometry" />
        </mxCell>
        <mxCell id="i8Mm3vH8ENvqSS8jScLA-30" value="401" style="rounded=0;whiteSpace=wrap;html=1;align=left;" vertex="1" parent="1">
          <mxGeometry x="470" y="570" width="120" height="20" as="geometry" />
        </mxCell>
        <mxCell id="i8Mm3vH8ENvqSS8jScLA-31" value="" style="rounded=0;whiteSpace=wrap;html=1;align=left;" vertex="1" parent="1">
          <mxGeometry x="470" y="590" width="120" height="20" as="geometry" />
        </mxCell>
        <mxCell id="i8Mm3vH8ENvqSS8jScLA-32" value="" style="rounded=0;whiteSpace=wrap;html=1;align=left;" vertex="1" parent="1">
          <mxGeometry x="470" y="610" width="120" height="20" as="geometry" />
        </mxCell>
        <mxCell id="i8Mm3vH8ENvqSS8jScLA-33" value="" style="rounded=0;whiteSpace=wrap;html=1;align=left;" vertex="1" parent="1">
          <mxGeometry x="470" y="630" width="120" height="20" as="geometry" />
        </mxCell>
        <mxCell id="i8Mm3vH8ENvqSS8jScLA-34" value="500" style="rounded=0;whiteSpace=wrap;html=1;align=left;" vertex="1" parent="1">
          <mxGeometry x="470" y="650" width="120" height="20" as="geometry" />
        </mxCell>
        <mxCell id="i8Mm3vH8ENvqSS8jScLA-41" value="701" style="rounded=0;whiteSpace=wrap;html=1;align=left;" vertex="1" parent="1">
          <mxGeometry x="210" y="340" width="120" height="20" as="geometry" />
        </mxCell>
        <mxCell id="i8Mm3vH8ENvqSS8jScLA-42" value="" style="rounded=0;whiteSpace=wrap;html=1;align=left;" vertex="1" parent="1">
          <mxGeometry x="210" y="360" width="120" height="20" as="geometry" />
        </mxCell>
        <mxCell id="i8Mm3vH8ENvqSS8jScLA-43" value="" style="rounded=0;whiteSpace=wrap;html=1;align=left;" vertex="1" parent="1">
          <mxGeometry x="210" y="380" width="120" height="20" as="geometry" />
        </mxCell>
        <mxCell id="i8Mm3vH8ENvqSS8jScLA-44" value="742" style="rounded=0;whiteSpace=wrap;html=1;align=left;" vertex="1" parent="1">
          <mxGeometry x="210" y="400" width="120" height="20" as="geometry" />
        </mxCell>
        <mxCell id="i8Mm3vH8ENvqSS8jScLA-45" value="743" style="rounded=0;whiteSpace=wrap;html=1;align=left;" vertex="1" parent="1">
          <mxGeometry x="210" y="420" width="120" height="20" as="geometry" />
        </mxCell>
        <mxCell id="i8Mm3vH8ENvqSS8jScLA-46" value="" style="rounded=0;whiteSpace=wrap;html=1;align=left;" vertex="1" parent="1">
          <mxGeometry x="210" y="440" width="120" height="20" as="geometry" />
        </mxCell>
        <mxCell id="i8Mm3vH8ENvqSS8jScLA-47" value="" style="rounded=0;whiteSpace=wrap;html=1;align=left;" vertex="1" parent="1">
          <mxGeometry x="210" y="460" width="120" height="20" as="geometry" />
        </mxCell>
        <mxCell id="i8Mm3vH8ENvqSS8jScLA-48" value="1500" style="rounded=0;whiteSpace=wrap;html=1;align=left;" vertex="1" parent="1">
          <mxGeometry x="210" y="480" width="120" height="20" as="geometry" />
        </mxCell>
        <mxCell id="i8Mm3vH8ENvqSS8jScLA-52" value="743" style="rounded=0;whiteSpace=wrap;html=1;align=left;" vertex="1" parent="1">
          <mxGeometry x="210" y="570" width="120" height="20" as="geometry" />
        </mxCell>
        <mxCell id="i8Mm3vH8ENvqSS8jScLA-53" value="336" style="rounded=0;whiteSpace=wrap;html=1;align=left;" vertex="1" parent="1">
          <mxGeometry x="210" y="590" width="120" height="20" as="geometry" />
        </mxCell>
        <mxCell id="i8Mm3vH8ENvqSS8jScLA-54" value="" style="rounded=0;whiteSpace=wrap;html=1;align=left;" vertex="1" parent="1">
          <mxGeometry x="210" y="610" width="120" height="20" as="geometry" />
        </mxCell>
        <mxCell id="i8Mm3vH8ENvqSS8jScLA-55" value="" style="rounded=0;whiteSpace=wrap;html=1;align=left;" vertex="1" parent="1">
          <mxGeometry x="210" y="630" width="120" height="20" as="geometry" />
        </mxCell>
        <mxCell id="i8Mm3vH8ENvqSS8jScLA-57" value="&lt;b&gt;&lt;font style=&quot;font-size: 20px&quot;&gt;Стек&lt;/font&gt;&lt;/b&gt;" style="text;html=1;strokeColor=none;fillColor=none;align=center;verticalAlign=middle;whiteSpace=wrap;rounded=0;" vertex="1" parent="1">
          <mxGeometry x="250" y="535" width="40" height="20" as="geometry" />
        </mxCell>
        <mxCell id="i8Mm3vH8ENvqSS8jScLA-58" value="&lt;font style=&quot;font-size: 16px&quot;&gt;&lt;b&gt;ПОП&lt;/b&gt;&lt;/font&gt;" style="text;html=1;strokeColor=none;fillColor=none;align=center;verticalAlign=middle;whiteSpace=wrap;rounded=0;" vertex="1" parent="1">
          <mxGeometry x="510" y="160" width="40" height="20" as="geometry" />
        </mxCell>
        <mxCell id="i8Mm3vH8ENvqSS8jScLA-59" value="" style="curved=1;endArrow=classic;html=1;exitX=0;exitY=0.5;exitDx=0;exitDy=0;entryX=0;entryY=0.5;entryDx=0;entryDy=0;" edge="1" parent="1" source="i8Mm3vH8ENvqSS8jScLA-52" target="i8Mm3vH8ENvqSS8jScLA-7">
          <mxGeometry width="50" height="50" relative="1" as="geometry">
            <mxPoint x="140" y="620" as="sourcePoint" />
            <mxPoint x="190" y="570" as="targetPoint" />
            <Array as="points">
              <mxPoint x="180" y="590" />
              <mxPoint x="130" y="450" />
              <mxPoint x="140" y="240" />
            </Array>
          </mxGeometry>
        </mxCell>
        <mxCell id="i8Mm3vH8ENvqSS8jScLA-60" value="" style="curved=1;endArrow=classic;html=1;exitX=1;exitY=0.5;exitDx=0;exitDy=0;entryX=0;entryY=0.5;entryDx=0;entryDy=0;" edge="1" parent="1" source="i8Mm3vH8ENvqSS8jScLA-7" target="i8Mm3vH8ENvqSS8jScLA-23">
          <mxGeometry width="50" height="50" relative="1" as="geometry">
            <mxPoint x="370" y="470" as="sourcePoint" />
            <mxPoint x="420" y="420" as="targetPoint" />
            <Array as="points">
              <mxPoint x="390" y="380" />
              <mxPoint x="410" y="400" />
            </Array>
          </mxGeometry>
        </mxCell>
        <mxCell id="i8Mm3vH8ENvqSS8jScLA-61" value="" style="endArrow=classic;html=1;exitX=0.5;exitY=0.5;exitDx=0;exitDy=0;entryX=0.5;entryY=0.5;entryDx=0;entryDy=0;entryPerimeter=0;exitPerimeter=0;" edge="1" parent="1" source="i8Mm3vH8ENvqSS8jScLA-23" target="i8Mm3vH8ENvqSS8jScLA-26">
          <mxGeometry width="50" height="50" relative="1" as="geometry">
            <mxPoint x="500" y="580" as="sourcePoint" />
            <mxPoint x="550" y="530" as="targetPoint" />
          </mxGeometry>
        </mxCell>
        <mxCell id="i8Mm3vH8ENvqSS8jScLA-62" value="" style="endArrow=classic;html=1;exitX=0;exitY=0;exitDx=0;exitDy=0;entryX=1;entryY=0.75;entryDx=0;entryDy=0;" edge="1" parent="1" source="i8Mm3vH8ENvqSS8jScLA-27" target="i8Mm3vH8ENvqSS8jScLA-53">
          <mxGeometry width="50" height="50" relative="1" as="geometry">
            <mxPoint x="380" y="520" as="sourcePoint" />
            <mxPoint x="330" y="600" as="targetPoint" />
          </mxGeometry>
        </mxCell>
        <mxCell id="i8Mm3vH8ENvqSS8jScLA-63" value="" style="curved=1;endArrow=classic;html=1;exitX=0;exitY=0.5;exitDx=0;exitDy=0;entryX=0;entryY=0.5;entryDx=0;entryDy=0;" edge="1" parent="1" source="i8Mm3vH8ENvqSS8jScLA-53" target="i8Mm3vH8ENvqSS8jScLA-5">
          <mxGeometry width="50" height="50" relative="1" as="geometry">
            <mxPoint x="70" y="530" as="sourcePoint" />
            <mxPoint x="120" y="480" as="targetPoint" />
            <Array as="points">
              <mxPoint x="120" y="530" />
              <mxPoint x="110" y="490" />
              <mxPoint x="110" y="450" />
              <mxPoint x="140" y="200" />
            </Array>
          </mxGeometry>
        </mxCell>
        <mxCell id="i8Mm3vH8ENvqSS8jScLA-64" value="" style="endArrow=classic;html=1;exitX=0;exitY=0.5;exitDx=0;exitDy=0;entryX=1;entryY=0.5;entryDx=0;entryDy=0;" edge="1" parent="1" source="i8Mm3vH8ENvqSS8jScLA-16" target="i8Mm3vH8ENvqSS8jScLA-53">
          <mxGeometry width="50" height="50" relative="1" as="geometry">
            <mxPoint x="389" y="300" as="sourcePoint" />
            <mxPoint x="439" y="250" as="targetPoint" />
            <Array as="points">
              <mxPoint x="420" y="460" />
            </Array>
          </mxGeometry>
        </mxCell>
        <mxCell id="i8Mm3vH8ENvqSS8jScLA-66" value="" style="endArrow=classic;html=1;entryX=0.417;entryY=0.5;entryDx=0;entryDy=0;entryPerimeter=0;" edge="1" parent="1" target="i8Mm3vH8ENvqSS8jScLA-16">
          <mxGeometry width="50" height="50" relative="1" as="geometry">
            <mxPoint x="520" y="200" as="sourcePoint" />
            <mxPoint x="570" y="150" as="targetPoint" />
          </mxGeometry>
        </mxCell>
        <mxCell id="i8Mm3vH8ENvqSS8jScLA-67" value="" style="endArrow=classic;html=1;exitX=1;exitY=0;exitDx=0;exitDy=0;entryX=0;entryY=0.5;entryDx=0;entryDy=0;" edge="1" parent="1" source="i8Mm3vH8ENvqSS8jScLA-54" target="i8Mm3vH8ENvqSS8jScLA-27">
          <mxGeometry width="50" height="50" relative="1" as="geometry">
            <mxPoint x="364" y="620" as="sourcePoint" />
            <mxPoint x="414" y="570" as="targetPoint" />
            <Array as="points">
              <mxPoint x="410" y="570" />
            </Array>
          </mxGeometry>
        </mxCell>
        <mxCell id="i8Mm3vH8ENvqSS8jScLA-68" value="" style="endArrow=classic;html=1;exitX=0.5;exitY=0.5;exitDx=0;exitDy=0;exitPerimeter=0;entryX=0.5;entryY=0.5;entryDx=0;entryDy=0;entryPerimeter=0;" edge="1" parent="1" source="i8Mm3vH8ENvqSS8jScLA-27" target="i8Mm3vH8ENvqSS8jScLA-34">
          <mxGeometry width="50" height="50" relative="1" as="geometry">
            <mxPoint x="490" y="630" as="sourcePoint" />
            <mxPoint x="540" y="580" as="targetPoint" />
          </mxGeometry>
        </mxCell>
        <mxCell id="i8Mm3vH8ENvqSS8jScLA-69" value="" style="endArrow=classic;html=1;exitX=0;exitY=0.5;exitDx=0;exitDy=0;entryX=1;entryY=0.75;entryDx=0;entryDy=0;" edge="1" parent="1" source="i8Mm3vH8ENvqSS8jScLA-34" target="i8Mm3vH8ENvqSS8jScLA-52">
          <mxGeometry width="50" height="50" relative="1" as="geometry">
            <mxPoint x="320" y="550" as="sourcePoint" />
            <mxPoint x="370" y="500" as="targetPoint" />
          </mxGeometry>
        </mxCell>
        <mxCell id="i8Mm3vH8ENvqSS8jScLA-70" value="" style="curved=1;endArrow=classic;html=1;exitX=1;exitY=0.5;exitDx=0;exitDy=0;entryX=1;entryY=0.5;entryDx=0;entryDy=0;" edge="1" parent="1" source="i8Mm3vH8ENvqSS8jScLA-52" target="i8Mm3vH8ENvqSS8jScLA-45">
          <mxGeometry width="50" height="50" relative="1" as="geometry">
            <mxPoint x="290" y="540" as="sourcePoint" />
            <mxPoint x="340" y="490" as="targetPoint" />
            <Array as="points">
              <mxPoint x="340" y="540" />
              <mxPoint x="380" y="490" />
            </Array>
          </mxGeometry>
        </mxCell>
        <mxCell id="i8Mm3vH8ENvqSS8jScLA-71" value="" style="endArrow=classic;html=1;entryX=0.5;entryY=0.5;entryDx=0;entryDy=0;entryPerimeter=0;exitX=0.5;exitY=0.5;exitDx=0;exitDy=0;exitPerimeter=0;" edge="1" parent="1" source="i8Mm3vH8ENvqSS8jScLA-45" target="i8Mm3vH8ENvqSS8jScLA-48">
          <mxGeometry width="50" height="50" relative="1" as="geometry">
            <mxPoint x="260" y="530" as="sourcePoint" />
            <mxPoint x="310" y="480" as="targetPoint" />
          </mxGeometry>
        </mxCell>
        <mxCell id="i8Mm3vH8ENvqSS8jScLA-72" value="" style="endArrow=classic;html=1;entryX=0.5;entryY=0.5;entryDx=0;entryDy=0;entryPerimeter=0;exitX=0.5;exitY=0.5;exitDx=0;exitDy=0;exitPerimeter=0;" edge="1" parent="1">
          <mxGeometry width="50" height="50" relative="1" as="geometry">
            <mxPoint x="269.8" y="350" as="sourcePoint" />
            <mxPoint x="269.8" y="410" as="targetPoint" />
          </mxGeometry>
        </mxCell>
        <mxCell id="i8Mm3vH8ENvqSS8jScLA-73" value="" style="curved=1;endArrow=classic;html=1;entryX=0;entryY=0.25;entryDx=0;entryDy=0;exitX=0;exitY=0.5;exitDx=0;exitDy=0;" edge="1" parent="1" source="i8Mm3vH8ENvqSS8jScLA-44" target="i8Mm3vH8ENvqSS8jScLA-52">
          <mxGeometry width="50" height="50" relative="1" as="geometry">
            <mxPoint x="150" y="465" as="sourcePoint" />
            <mxPoint x="200" y="415" as="targetPoint" />
            <Array as="points">
              <mxPoint x="180" y="420" />
              <mxPoint x="170" y="430" />
              <mxPoint x="170" y="450" />
            </Array>
          </mxGeometry>
        </mxCell>
        <mxCell id="i8Mm3vH8ENvqSS8jScLA-74" value="0" style="text;html=1;strokeColor=none;fillColor=none;align=center;verticalAlign=middle;whiteSpace=wrap;rounded=0;fontStyle=1;fontSize=17;" vertex="1" parent="1">
          <mxGeometry x="270" y="360" width="20" height="60" as="geometry" />
        </mxCell>
        <mxCell id="i8Mm3vH8ENvqSS8jScLA-75" value="&lt;b&gt;1&lt;/b&gt;" style="text;html=1;strokeColor=none;fillColor=none;align=center;verticalAlign=middle;whiteSpace=wrap;rounded=0;fontSize=17;" vertex="1" parent="1">
          <mxGeometry x="170" y="430" width="40" height="20" as="geometry" />
        </mxCell>
        <mxCell id="i8Mm3vH8ENvqSS8jScLA-76" value="&lt;b&gt;2&lt;/b&gt;" style="text;html=1;strokeColor=none;fillColor=none;align=center;verticalAlign=middle;whiteSpace=wrap;rounded=0;fontSize=17;" vertex="1" parent="1">
          <mxGeometry x="130" y="320" width="40" height="20" as="geometry" />
        </mxCell>
        <mxCell id="i8Mm3vH8ENvqSS8jScLA-77" value="3" style="text;html=1;strokeColor=none;fillColor=none;align=center;verticalAlign=middle;whiteSpace=wrap;rounded=0;fontSize=17;fontStyle=1" vertex="1" parent="1">
          <mxGeometry x="380" y="340" width="20" height="20" as="geometry" />
        </mxCell>
        <mxCell id="i8Mm3vH8ENvqSS8jScLA-78" value="4" style="text;html=1;strokeColor=none;fillColor=none;align=center;verticalAlign=middle;whiteSpace=wrap;rounded=0;fontSize=17;fontStyle=1" vertex="1" parent="1">
          <mxGeometry x="520" y="450" width="40" height="20" as="geometry" />
        </mxCell>
        <mxCell id="i8Mm3vH8ENvqSS8jScLA-79" value="5" style="text;html=1;strokeColor=none;fillColor=none;align=center;verticalAlign=middle;whiteSpace=wrap;rounded=0;fontSize=17;fontStyle=1" vertex="1" parent="1">
          <mxGeometry x="400" y="530" width="16" height="20" as="geometry" />
        </mxCell>
        <mxCell id="i8Mm3vH8ENvqSS8jScLA-81" value="6" style="text;html=1;strokeColor=none;fillColor=none;align=center;verticalAlign=middle;whiteSpace=wrap;rounded=0;fontSize=17;fontStyle=1" vertex="1" parent="1">
          <mxGeometry x="150" y="190" width="20" height="20" as="geometry" />
        </mxCell>
        <mxCell id="i8Mm3vH8ENvqSS8jScLA-82" value="7" style="text;html=1;strokeColor=none;fillColor=none;align=center;verticalAlign=middle;whiteSpace=wrap;rounded=0;fontSize=17;fontStyle=1" vertex="1" parent="1">
          <mxGeometry x="380" y="180" width="40" height="20" as="geometry" />
        </mxCell>
        <mxCell id="i8Mm3vH8ENvqSS8jScLA-83" value="8" style="text;html=1;strokeColor=none;fillColor=none;align=center;verticalAlign=middle;whiteSpace=wrap;rounded=0;fontSize=17;fontStyle=1" vertex="1" parent="1">
          <mxGeometry x="520" y="230" width="20" height="20" as="geometry" />
        </mxCell>
        <mxCell id="i8Mm3vH8ENvqSS8jScLA-84" value="9" style="text;html=1;strokeColor=none;fillColor=none;align=center;verticalAlign=middle;whiteSpace=wrap;rounded=0;fontSize=17;fontStyle=1" vertex="1" parent="1">
          <mxGeometry x="392" y="440" width="24" height="20" as="geometry" />
        </mxCell>
        <mxCell id="i8Mm3vH8ENvqSS8jScLA-85" value="10" style="text;html=1;strokeColor=none;fillColor=none;align=center;verticalAlign=middle;whiteSpace=wrap;rounded=0;fontSize=17;fontStyle=1" vertex="1" parent="1">
          <mxGeometry x="400" y="575" width="30" height="25" as="geometry" />
        </mxCell>
        <mxCell id="i8Mm3vH8ENvqSS8jScLA-86" value="&lt;b&gt;11&lt;/b&gt;" style="text;html=1;strokeColor=none;fillColor=none;align=center;verticalAlign=middle;whiteSpace=wrap;rounded=0;fontSize=17;" vertex="1" parent="1">
          <mxGeometry x="530" y="590" width="40" height="20" as="geometry" />
        </mxCell>
        <mxCell id="i8Mm3vH8ENvqSS8jScLA-87" value="&lt;b&gt;12&lt;/b&gt;" style="text;html=1;strokeColor=none;fillColor=none;align=center;verticalAlign=middle;whiteSpace=wrap;rounded=0;fontSize=17;" vertex="1" parent="1">
          <mxGeometry x="380" y="630" width="20" height="20" as="geometry" />
        </mxCell>
        <mxCell id="i8Mm3vH8ENvqSS8jScLA-88" value="13" style="text;html=1;strokeColor=none;fillColor=none;align=center;verticalAlign=middle;whiteSpace=wrap;rounded=0;fontSize=17;fontStyle=1" vertex="1" parent="1">
          <mxGeometry x="340" y="490" width="20" height="20" as="geometry" />
        </mxCell>
        <mxCell id="i8Mm3vH8ENvqSS8jScLA-89" value="&lt;b&gt;14&lt;/b&gt;" style="text;html=1;strokeColor=none;fillColor=none;align=center;verticalAlign=middle;whiteSpace=wrap;rounded=0;fontSize=17;" vertex="1" parent="1">
          <mxGeometry x="270" y="460" width="30" height="20" as="geometry" />
        </mxCell>
      </root>
    </mxGraphModel>
  </diagram>
</mxfile>
